<svg id="Layer_1" data-name="Layer 1" xmlns="http://www.w3.org/2000/svg" viewBox="0 0 1065 300.04"><defs><style>.cls-1{fill:none;stroke:#f7941d;stroke-miterlimit:10;stroke-width:40px;}.cls-2{fill:#f7941d;}</style></defs><ellipse class="cls-1" cx="143.31" cy="156.24" rx="101.81" ry="101.72"/><line class="cls-1" x1="70.59" y1="83.58" x2="245.12" y2="263.81"/><path class="cls-2" d="M302.15,256.45q-18.06-19.15-18.06-53.71V118h47.36V201.2q0,17,5.52,24.65t16,7.71q10.43,0,15.95-7.71t5.52-24.65V118H421v84.76q0,34.56-18.06,53.71T352.53,275.6Q320.21,275.6,302.15,256.45Z"/><path class="cls-2" d="M442.63,118H490v154.1H442.63Z"/><path class="cls-2" d="M543.38,158.27H502.23V118H631.88v40.29H590.74V272.08H543.38Z"/><path class="cls-2" d="M676.63,158.27H635.49V118H765.13v40.29H724V272.08H676.63Z"/><path class="cls-2" d="M894.17,232.9v39.18H777.37V118H891.56v39.19H823.93v18.05h59.4v37.42h-59.4V232.9Z"/><path class="cls-2" d="M972.63,233.34H959.79v38.74H912.43V118h67.63q19.47,0,33.92,7a51.33,51.33,0,0,1,22.27,20.25q7.83,13.2,7.83,30.82,0,16.52-6.82,28.84a50.14,50.14,0,0,1-19.67,19.59l29.5,47.55H996.52Zm18.87-70.56q-4.82-4.72-14.45-4.73H959.79v36.1h17.26q9.63,0,14.45-4.73t4.82-13.32Q996.32,167.51,991.5,162.78Z"/></svg>